<?xml version="1.0" encoding="UTF-8" standalone="no"?>
<!DOCTYPE svg PUBLIC "-//W3C//DTD SVG 1.1//EN"
 "http://www.w3.org/Graphics/SVG/1.1/DTD/svg11.dtd">
<!-- Generated by graphviz version 2.43.0 (0)
 -->
<!-- Title: RSP::Request_Message_With_Id Pages: 1 -->
<svg width="264pt" height="425pt"
 viewBox="0.00 0.00 264.40 425.40" xmlns="http://www.w3.org/2000/svg" xmlns:xlink="http://www.w3.org/1999/xlink">
<g id="graph0" class="graph" transform="scale(1 1) rotate(0) translate(7.2 418.2)">
<title>RSP::Request_Message_With_Id</title>
<polygon fill="transparent" stroke="transparent" points="-7.2,7.2 -7.2,-418.2 257.2,-418.2 257.2,7.2 -7.2,7.2"/>
<!-- Initial -->
<g id="node1" class="node">
<title>Initial</title>
<ellipse fill="#ffffff" stroke="#6f6f6f" cx="125" cy="-393" rx="18" ry="18"/>
</g>
<!-- intermediate_0 -->
<g id="node6" class="node">
<title>intermediate_0</title>
<polygon fill="none" stroke="#6f6f6f" stroke-width="0" points="162.5,-367 87.5,-367 87.5,-344 162.5,-344 162.5,-367"/>
<text text-anchor="middle" x="125" y="-351.8" font-family="Fira Code" font-size="14.00" fill="#6f6f6f">(⊤, 8, ⋆)</text>
</g>
<!-- Initial&#45;&gt;intermediate_0 -->
<g id="edge1" class="edge">
<title>Initial&#45;&gt;intermediate_0</title>
<path fill="none" stroke="#6f6f6f" stroke-width="2.5" d="M125,-374.67C125,-372.13 125,-369.59 125,-367.24"/>
</g>
<!-- Stack_Id -->
<g id="node2" class="node">
<title>Stack_Id</title>
<path fill="#009641" stroke="#6f6f6f" d="M167,-336C167,-336 83,-336 83,-336 77,-336 71,-330 71,-324 71,-324 71,-312 71,-312 71,-306 77,-300 83,-300 83,-300 167,-300 167,-300 173,-300 179,-306 179,-312 179,-312 179,-324 179,-324 179,-330 173,-336 167,-336"/>
<text text-anchor="middle" x="125" y="-314.3" font-family="Arimo" font-size="14.00" fill="#ffffff">Stack_Id</text>
</g>
<!-- intermediate_4 -->
<g id="node11" class="node">
<title>intermediate_4</title>
<polygon fill="none" stroke="#6f6f6f" stroke-width="0" points="162.5,-292 87.5,-292 87.5,-269 162.5,-269 162.5,-292"/>
<text text-anchor="middle" x="125" y="-276.8" font-family="Fira Code" font-size="14.00" fill="#6f6f6f">(⊤, 8, ⋆)</text>
</g>
<!-- Stack_Id&#45;&gt;intermediate_4 -->
<g id="edge9" class="edge">
<title>Stack_Id&#45;&gt;intermediate_4</title>
<path fill="none" stroke="#6f6f6f" stroke-width="2.5" d="M125,-299.67C125,-297.13 125,-294.59 125,-292.24"/>
</g>
<!-- Kind -->
<g id="node3" class="node">
<title>Kind</title>
<path fill="#009641" stroke="#6f6f6f" d="M167,-261C167,-261 83,-261 83,-261 77,-261 71,-255 71,-249 71,-249 71,-237 71,-237 71,-231 77,-225 83,-225 83,-225 167,-225 167,-225 173,-225 179,-231 179,-237 179,-237 179,-249 179,-249 179,-255 173,-261 167,-261"/>
<text text-anchor="middle" x="125" y="-239.3" font-family="Arimo" font-size="14.00" fill="#ffffff">Kind</text>
</g>
<!-- intermediate_1 -->
<g id="node7" class="node">
<title>intermediate_1</title>
<polygon fill="none" stroke="#6f6f6f" stroke-width="0" points="250,-217 0,-217 0,-194 250,-194 250,-217"/>
<text text-anchor="middle" x="125" y="-201.8" font-family="Fira Code" font-size="14.00" fill="#6f6f6f">(Kind = RSP::Request_Store, 8, ⋆)</text>
</g>
<!-- Kind&#45;&gt;intermediate_1 -->
<g id="edge3" class="edge">
<title>Kind&#45;&gt;intermediate_1</title>
<path fill="none" stroke="#6f6f6f" stroke-width="2.5" d="M125,-224.67C125,-222.13 125,-219.59 125,-217.24"/>
</g>
<!-- Length -->
<g id="node4" class="node">
<title>Length</title>
<path fill="#009641" stroke="#6f6f6f" d="M167,-186C167,-186 83,-186 83,-186 77,-186 71,-180 71,-174 71,-174 71,-162 71,-162 71,-156 77,-150 83,-150 83,-150 167,-150 167,-150 173,-150 179,-156 179,-162 179,-162 179,-174 179,-174 179,-180 173,-186 167,-186"/>
<text text-anchor="middle" x="125" y="-164.3" font-family="Arimo" font-size="14.00" fill="#ffffff">Length</text>
</g>
<!-- intermediate_2 -->
<g id="node8" class="node">
<title>intermediate_2</title>
<polygon fill="none" stroke="#6f6f6f" stroke-width="0" points="194.5,-142 55.5,-142 55.5,-119 194.5,-119 194.5,-142"/>
<text text-anchor="middle" x="125" y="-126.8" font-family="Fira Code" font-size="14.00" fill="#6f6f6f">(⊤, Length * 8, ⋆)</text>
</g>
<!-- Length&#45;&gt;intermediate_2 -->
<g id="edge5" class="edge">
<title>Length&#45;&gt;intermediate_2</title>
<path fill="none" stroke="#6f6f6f" stroke-width="2.5" d="M125,-149.67C125,-147.13 125,-144.59 125,-142.24"/>
</g>
<!-- Payload -->
<g id="node5" class="node">
<title>Payload</title>
<path fill="#009641" stroke="#6f6f6f" d="M167,-111C167,-111 83,-111 83,-111 77,-111 71,-105 71,-99 71,-99 71,-87 71,-87 71,-81 77,-75 83,-75 83,-75 167,-75 167,-75 173,-75 179,-81 179,-87 179,-87 179,-99 179,-99 179,-105 173,-111 167,-111"/>
<text text-anchor="middle" x="125" y="-89.3" font-family="Arimo" font-size="14.00" fill="#ffffff">Payload</text>
</g>
<!-- intermediate_3 -->
<g id="node9" class="node">
<title>intermediate_3</title>
<polygon fill="none" stroke="#6f6f6f" stroke-width="0" points="162.5,-67 87.5,-67 87.5,-44 162.5,-44 162.5,-67"/>
<text text-anchor="middle" x="125" y="-51.8" font-family="Fira Code" font-size="14.00" fill="#6f6f6f">(⊤, 0, ⋆)</text>
</g>
<!-- Payload&#45;&gt;intermediate_3 -->
<g id="edge7" class="edge">
<title>Payload&#45;&gt;intermediate_3</title>
<path fill="none" stroke="#6f6f6f" stroke-width="2.5" d="M125,-74.67C125,-72.13 125,-69.59 125,-67.24"/>
</g>
<!-- intermediate_0&#45;&gt;Stack_Id -->
<g id="edge2" class="edge">
<title>intermediate_0&#45;&gt;Stack_Id</title>
<path fill="none" stroke="#6f6f6f" stroke-width="2.5" d="M125,-343.66C125,-343.51 125,-343.36 125,-343.21"/>
<polygon fill="#6f6f6f" stroke="#6f6f6f" stroke-width="2.5" points="128.5,-346.19 125,-336.19 121.5,-346.19 128.5,-346.19"/>
</g>
<!-- intermediate_1&#45;&gt;Length -->
<g id="edge4" class="edge">
<title>intermediate_1&#45;&gt;Length</title>
<path fill="none" stroke="#6f6f6f" stroke-width="2.5" d="M125,-193.66C125,-193.51 125,-193.36 125,-193.21"/>
<polygon fill="#6f6f6f" stroke="#6f6f6f" stroke-width="2.5" points="128.5,-196.19 125,-186.19 121.5,-196.19 128.5,-196.19"/>
</g>
<!-- intermediate_2&#45;&gt;Payload -->
<g id="edge6" class="edge">
<title>intermediate_2&#45;&gt;Payload</title>
<path fill="none" stroke="#6f6f6f" stroke-width="2.5" d="M125,-118.66C125,-118.51 125,-118.36 125,-118.21"/>
<polygon fill="#6f6f6f" stroke="#6f6f6f" stroke-width="2.5" points="128.5,-121.19 125,-111.19 121.5,-121.19 128.5,-121.19"/>
</g>
<!-- Final -->
<g id="node10" class="node">
<title>Final</title>
<ellipse fill="#6f6f6f" stroke="#6f6f6f" cx="125" cy="-18" rx="18" ry="18"/>
</g>
<!-- intermediate_3&#45;&gt;Final -->
<g id="edge8" class="edge">
<title>intermediate_3&#45;&gt;Final</title>
<path fill="none" stroke="#6f6f6f" stroke-width="2.5" d="M125,-43.66C125,-43.51 125,-43.36 125,-43.21"/>
<polygon fill="#6f6f6f" stroke="#6f6f6f" stroke-width="2.5" points="128.5,-46.19 125,-36.19 121.5,-46.19 128.5,-46.19"/>
</g>
<!-- intermediate_4&#45;&gt;Kind -->
<g id="edge10" class="edge">
<title>intermediate_4&#45;&gt;Kind</title>
<path fill="none" stroke="#6f6f6f" stroke-width="2.5" d="M125,-268.66C125,-268.51 125,-268.36 125,-268.21"/>
<polygon fill="#6f6f6f" stroke="#6f6f6f" stroke-width="2.5" points="128.5,-271.19 125,-261.19 121.5,-271.19 128.5,-271.19"/>
</g>
</g>
</svg>
